<svg width="40" height="40" viewBox="0 0 40 40" fill="none" xmlns="http://www.w3.org/2000/svg">
<circle cx="20" cy="20" r="20" fill="#887AF9"/>
<g clip-path="url(#clip0)">
<path d="M12.8749 18.5H16.6249C16.852 18.5 17.0568 18.3635 17.1442 18.1539L18.7139 14.3866C18.8094 14.1572 18.7432 13.8922 18.5508 13.7349L15.1061 10.9165C14.8989 10.7469 14.6009 10.7469 14.3937 10.9165L10.949 13.7349C10.7567 13.8922 10.6904 14.1572 10.786 14.3866L12.3557 18.1539C12.443 18.3635 12.6478 18.5 12.8749 18.5Z" fill="white"/>
<path d="M22.2499 11C21.8357 11 21.4999 11.3358 21.4999 11.75V17.75C21.4999 18.1642 21.8357 18.5 22.2499 18.5H28.2499C28.6641 18.5 28.9999 18.1642 28.9999 17.75V11.75C28.9999 11.3358 28.6641 11 28.2499 11H22.2499Z" fill="white"/>
<path d="M14.7499 29C16.821 29 18.4999 27.3211 18.4999 25.25C18.4999 23.1789 16.821 21.5 14.7499 21.5C12.6789 21.5 10.9999 23.1789 10.9999 25.25C10.9999 27.3211 12.6789 29 14.7499 29Z" fill="white"/>
<path d="M21.508 29H28.9919C29.3335 29 29.5505 28.6344 29.3869 28.3345L25.645 21.4743C25.4744 21.1616 25.0254 21.1616 24.8549 21.4743L21.1129 28.3345C20.9494 28.6344 21.1664 29 21.508 29Z" fill="white"/>
</g>
<defs>
<clipPath id="clip0">
<rect width="19.5" height="19.5" fill="white" transform="translate(10.25 10.25)"/>
</clipPath>
</defs>
</svg>
